<svg width="1000" height="240" fill="none" xmlns="http://www.w3.org/2000/svg"><path d="M23.45 179.26c37.932 23.957 66.802-6.583 66.802-6.583-10.315 37.448-34.04 44.266-34.04 44.266l5.358 10.861h81.064l5.358-10.861s-23.726-6.818-34.041-44.266c0 0 28.871 30.54 66.803 6.583C218.687 155.304 218.283 62.31 102.101 1-14.079 62.311-14.483 155.304 23.45 179.26z" fill="#FFF" fill-rule="evenodd" /><path d="M262.219 115.859c0-12.364 1.925-23.712 5.774-34.044 3.849-10.333 9.098-19.208 15.747-26.627 6.648-7.418 14.565-13.158 23.751-17.22 9.185-4.063 19.114-6.094 29.787-6.094 9.448 0 18.021 1.369 25.72 4.107 7.698 2.737 14.347 6.49 19.946 11.26 5.598 4.768 10.191 10.553 13.778 17.353 3.587 6.8 6.167 14.262 7.742 22.387h-33.068c-2.799-7.418-6.867-13.423-12.204-18.016-5.336-4.592-12.641-6.888-21.914-6.888-6.473 0-12.247 1.325-17.321 3.974-5.074 2.65-9.404 6.403-12.991 11.26-3.587 4.857-6.299 10.553-8.136 17.088-1.837 6.535-2.756 13.688-2.756 21.46 0 7.771.919 14.925 2.756 21.46 1.837 6.535 4.549 12.187 8.136 16.956 3.587 4.768 7.917 8.522 12.991 11.259 5.074 2.738 10.848 4.107 17.321 4.107 9.273 0 16.578-2.296 21.914-6.888 5.337-4.593 9.405-10.686 12.204-18.281h33.068c-1.575 8.301-4.155 15.852-7.742 22.652-3.587 6.8-8.223 12.584-13.91 17.353-5.686 4.769-12.335 8.522-19.945 11.26-7.611 2.738-16.141 4.107-25.589 4.107-10.673 0-20.602-2.032-29.787-6.094-9.186-4.062-17.103-9.802-23.751-17.221-6.649-7.418-11.898-16.293-15.747-26.626-3.849-10.332-5.774-21.68-5.774-34.044zm228.589 81.335v-6.358c-1.925 1.943-5.555 3.841-10.891 5.696-5.337 1.854-11.242 2.782-17.715 2.782-5.949 0-11.548-.839-16.797-2.517-5.249-1.678-9.841-4.151-13.778-7.418-3.937-3.268-7.042-7.286-9.317-12.055-2.274-4.769-3.412-10.244-3.412-16.426 0-5.652 1.138-10.818 3.412-15.499 2.275-4.68 5.468-8.654 9.579-11.922 4.112-3.267 8.923-5.828 14.435-7.683 5.511-1.855 11.504-2.782 17.977-2.782 5.074 0 10.148.707 15.222 2.12 5.074 1.413 8.836 3.002 11.285 4.768v-8.742c0-5.123-1.531-9.45-4.593-12.982-3.062-3.533-7.829-5.299-14.303-5.299-4.724 0-8.486.971-11.285 2.914-2.799 1.943-4.811 4.681-6.036 8.213h-30.969a42.581 42.581 0 015.38-14.836c2.712-4.592 6.212-8.61 10.498-12.055 4.287-3.444 9.229-6.137 14.828-8.08 5.599-1.943 11.723-2.915 18.371-2.915 15.747 0 27.907 4.019 36.48 12.055 8.573 8.037 12.86 19.208 12.86 33.514v75.507h-31.231zm0-40.8c-.525-1.589-1.487-3.002-2.887-4.239-1.399-1.236-3.062-2.34-4.986-3.312-1.925-.971-4.024-1.677-6.299-2.119a35.687 35.687 0 00-6.823-.662c-2.625 0-5.162.265-7.611.794-2.45.53-4.68 1.413-6.693 2.65-2.012 1.236-3.586 2.782-4.724 4.636-1.137 1.855-1.705 4.018-1.705 6.491 0 2.65.568 4.857 1.705 6.624 1.138 1.766 2.712 3.267 4.724 4.503 2.013 1.237 4.243 2.12 6.693 2.65 2.449.53 4.986.795 7.611.795 2.274 0 4.549-.221 6.823-.663 2.275-.441 4.374-1.104 6.299-1.987 1.924-.883 3.587-1.943 4.986-3.179 1.4-1.236 2.362-2.649 2.887-4.239v-8.743zm90.281 40.8h-32.543V24.986h32.543v172.208zm60.625 0h-32.543V78.768h32.543v118.426zm3.149-152.603c0 5.652-1.925 10.2-5.774 13.644-3.849 3.444-8.398 5.166-13.647 5.166-5.074 0-9.535-1.722-13.385-5.166-3.849-3.444-5.773-7.992-5.773-13.644 0-5.475 1.924-9.935 5.773-13.38 3.85-3.444 8.311-5.165 13.385-5.165 5.249 0 9.798 1.721 13.647 5.166 3.849 3.444 5.774 7.904 5.774 13.379zm57.738 152.603h-32.544V24.986h32.544v63.85c1.224-1.59 2.886-3.18 4.986-4.77 2.1-1.59 4.418-2.958 6.955-4.106 2.537-1.148 5.292-2.075 8.267-2.782a39.606 39.606 0 019.185-1.06c8.574 0 16.141 1.634 22.702 4.902 6.561 3.267 12.16 7.727 16.796 13.379 4.637 5.652 8.136 12.187 10.498 19.605 2.362 7.419 3.543 15.455 3.543 24.109 0 8.478-1.181 16.471-3.543 23.977-2.362 7.507-5.861 14.086-10.498 19.738-4.636 5.652-10.235 10.067-16.796 13.247-6.561 3.179-14.128 4.769-22.702 4.769-3.149 0-6.211-.354-9.185-1.06-2.975-.707-5.73-1.634-8.267-2.782-2.537-1.148-4.855-2.473-6.955-3.974-2.1-1.501-3.762-3.047-4.986-4.636v9.802zm-.001-39.74c1.925 4.062 4.856 7.374 8.792 9.935 3.937 2.561 8.442 3.841 13.516 3.841 4.374 0 8.311-.838 11.81-2.516 3.5-1.678 6.43-3.974 8.792-6.889 2.362-2.914 4.199-6.402 5.512-10.465 1.312-4.062 1.968-8.478 1.968-13.247 0-4.768-.656-9.184-1.968-13.246-1.313-4.063-3.15-7.551-5.512-10.465-2.362-2.915-5.292-5.255-8.792-7.021-3.499-1.766-7.436-2.649-11.81-2.649-4.899 0-9.36 1.28-13.384 3.841-4.025 2.561-6.999 5.873-8.924 9.935v38.946zm175.051-46.364c-2.274-1.413-4.811-2.429-7.611-3.047a40.053 40.053 0 00-8.66-.927c-5.424 0-10.192 1.413-14.304 4.239-4.111 2.826-6.779 6.977-8.004 12.452v73.387h-32.543V78.768h32.543v11.657c2.449-4.239 6.036-7.683 10.76-10.332 4.724-2.65 9.885-3.975 15.484-3.975 2.975 0 5.555.221 7.742.663 2.187.441 3.718.927 4.593 1.457v32.852zm122.559 47.424c-1.922 12.54-7.346 22.563-16.269 30.07-8.923 7.506-20.733 11.26-35.43 11.26-8.573 0-16.359-1.502-23.358-4.504-6.998-3.003-12.991-7.242-17.977-12.717-4.986-5.476-8.879-11.967-11.679-19.473-2.799-7.507-4.199-15.852-4.199-25.037 0-9.007 1.4-17.264 4.199-24.771 2.8-7.507 6.693-14.042 11.679-19.605 4.986-5.564 10.979-9.891 17.977-12.982 6.999-3.091 14.522-4.637 22.571-4.637 8.748 0 16.402 1.458 22.963 4.372 6.562 2.914 12.073 6.932 16.534 12.055 4.462 5.122 7.874 11.303 10.236 18.545 2.362 7.242 3.543 15.19 3.543 23.844v10.068h-78.209c.35 4.415 1.181 8.389 2.494 11.922 1.312 3.532 3.061 6.535 5.249 9.008a20.728 20.728 0 007.873 5.563c3.062 1.237 6.43 1.855 10.104 1.855 5.424 0 10.06-1.236 13.909-3.709 3.85-2.473 6.387-6.182 7.611-11.127h30.179zm-52.224-55.902c-3.149 0-6.036.53-8.661 1.59a24.434 24.434 0 00-7.086 4.371c-2.099 1.855-3.893 4.151-5.38 6.888-1.487 2.738-2.581 5.961-3.28 9.671h45.665c-.175-3.18-.7-6.138-1.575-8.876-.875-2.737-2.231-5.122-4.068-7.153a19.69 19.69 0 00-6.561-4.769c-2.537-1.148-5.555-1.722-9.054-1.722z" fill="#FFF"/></svg>